<svg xmlns="http://www.w3.org/2000/svg" width="28" height="28" fill="none" viewBox="0 0 28 28">
  <path fill="#4E5973" d="m7.28 10.547-4.107 2.52 4.2 2.426c.467.28.654.934.374 1.4v.094c-.28.466-.934.56-1.4.28l-4.48-2.8a1.608 1.608 0 0 1-.747-1.307c0-.56.28-1.027.747-1.307l4.48-2.8c.466-.28 1.026-.186 1.4.28.186.374.093.934-.467 1.214Zm2.893 7.373 5.694-11.947c.28-.373.84-.653 1.306-.373l.187.093c.467.187.653.747.467 1.214l-5.694 11.946c-.186.467-.746.654-1.213.467l-.187-.093c-.56-.28-.84-.84-.56-1.307Zm16.707-4.853c0 .56-.28 1.026-.747 1.4l-4.573 2.8c-.467.28-1.027.186-1.307-.28V16.8c-.28-.467-.186-1.027.28-1.307l4.2-2.52-4.2-2.333c-.466-.28-.56-.84-.373-1.307l.093-.186c.28-.467.84-.56 1.307-.28l4.573 2.8c.467.28.747.84.747 1.4Z"/>
</svg>
 