<svg xmlns="http://www.w3.org/2000/svg" width="28" height="28" fill="none" viewBox="0 0 28 28">
  <mask id="a" width="28" height="28" x="0" y="0" maskUnits="userSpaceOnUse" style="mask-type:alpha">
    <path fill="#D9D9D9" d="M0 0h28v28H0z"/>
  </mask>
  <g mask="url(#a)">
    <path fill="#4E5973" d="M4.667 23.333a2.247 2.247 0 0 1-1.648-.685A2.247 2.247 0 0 1 2.333 21V7c0-.642.229-1.191.686-1.648a2.247 2.247 0 0 1 1.648-.685h18.666c.642 0 1.191.228 1.648.685.457.457.686 1.006.686 1.648v14c0 .642-.229 1.19-.686 1.648a2.247 2.247 0 0 1-1.648.685H4.667ZM14 15.167l9.333-5.834V7L14 12.833 4.667 7v2.333L14 15.167Z"/>
  </g>
</svg>
