<svg xmlns="http://www.w3.org/2000/svg" width="28" height="28" fill="none" viewBox="0 0 28 28">
  <mask id="a" width="28" height="28" x="0" y="0" maskUnits="userSpaceOnUse" style="mask-type:alpha">
    <path fill="#D9D9D9" d="M0 0h28v28H0z"/>
  </mask>
  <g mask="url(#a)">
    <path fill="#4E5973" d="M8.72 24.5c-1.769 0-3.276-.622-4.52-1.867-1.244-1.244-1.867-2.751-1.867-4.52 0-1.673.56-3.116 1.677-4.332 1.118-1.215 2.514-1.89 4.186-2.027L3.5 2.334h8.167L14 7l2.333-4.667H24.5l-4.667 9.363c1.653.155 3.039.84 4.157 2.056 1.118 1.215 1.677 2.66 1.677 4.331 0 1.79-.623 3.306-1.867 4.55-1.244 1.245-2.761 1.867-4.55 1.867-.175 0-.355-.005-.54-.015a3.285 3.285 0 0 1-.54-.072 7.422 7.422 0 0 0 2.51-2.727 7.475 7.475 0 0 0 .903-3.603c0-2.12-.734-3.913-2.202-5.38C17.913 11.233 16.12 10.5 14 10.5s-3.913.734-5.381 2.202c-1.468 1.468-2.202 3.262-2.202 5.381a8.72 8.72 0 0 0 .816 3.734A5.29 5.29 0 0 0 9.8 24.413a3.284 3.284 0 0 1-.54.072c-.184.01-.364.015-.54.015ZM14 23.333c-1.458 0-2.698-.51-3.719-1.53-1.02-1.022-1.531-2.261-1.531-3.72 0-1.458.51-2.697 1.531-3.718s2.26-1.532 3.719-1.532c1.458 0 2.698.51 3.719 1.532 1.02 1.02 1.531 2.26 1.531 3.718 0 1.459-.51 2.698-1.531 3.72-1.021 1.02-2.26 1.53-3.719 1.53Zm-2.158-2.041L14 19.658l2.158 1.634-.816-2.655 2.158-1.545h-2.654l-.846-2.8-.846 2.8H10.5l2.158 1.546-.816 2.654Z"/>
  </g>
</svg>
