<svg xmlns="http://www.w3.org/2000/svg" width="28" height="28" fill="none" viewBox="0 0 28 28">
  <path fill="#4E5973" d="M14 12.25c-1.283 0-2.333-.408-3.15-1.225-.817-.817-1.225-1.867-1.225-3.15s.408-2.333 1.225-3.15C11.667 3.908 12.717 3.5 14 3.5s2.333.408 3.15 1.225c.817.817 1.225 1.867 1.225 3.15s-.408 2.333-1.225 3.15c-.817.817-1.867 1.225-3.15 1.225ZM4.667 24.033V18.9c0-.758.175-1.342.525-1.925.35-.525.875-.933 1.458-1.167 1.283-.583 2.567-1.05 3.733-1.283 1.167-.233 2.392-.467 3.617-.467s2.392.175 3.558.467c1.167.292 2.45.758 3.734 1.283.583.292 1.108.7 1.458 1.167.35.525.525 1.167.525 1.867v5.133c-6.125.058-12.367.058-18.608.058Z"/>
</svg>
