<svg xmlns="http://www.w3.org/2000/svg" width="28" height="28" fill="none" viewBox="0 0 28 28">
  <path fill="#4E5973" d="m27.18 14.93-9.188 9.187c-.82.82-2.242.246-2.242-.93v-5.25H8.312A1.31 1.31 0 0 1 7 16.625v-5.25a1.31 1.31 0 0 1 1.313-1.313h7.437v-5.25c0-1.17 1.416-1.75 2.242-.93l9.188 9.188a1.324 1.324 0 0 1 0 1.86ZM10.5 23.844v-2.188A.658.658 0 0 0 9.844 21H5.25c-.968 0-1.75-.782-1.75-1.75V8.75C3.5 7.782 4.282 7 5.25 7h4.594a.658.658 0 0 0 .656-.656V4.156a.658.658 0 0 0-.656-.656H5.25A5.251 5.251 0 0 0 0 8.75v10.5a5.251 5.251 0 0 0 5.25 5.25h4.594a.658.658 0 0 0 .656-.656Z"/>
</svg>
