<svg xmlns="http://www.w3.org/2000/svg" width="28" height="28" fill="none" viewBox="0 0 28 28">
  <mask id="a" width="28" height="28" x="0" y="0" maskUnits="userSpaceOnUse" style="mask-type:alpha">
    <path fill="#D9D9D9" d="M0 0h28v28H0z"/>
  </mask>
  <g mask="url(#a)">
    <path fill="#4E5973" d="m17.5 24.5-7-2.45-5.425 2.1c-.389.156-.749.112-1.08-.131a1.152 1.152 0 0 1-.495-.977V6.708c0-.252.073-.476.219-.67a1.32 1.32 0 0 1 .598-.438L10.5 3.5l7 2.45 5.425-2.1c.389-.156.749-.112 1.08.131.33.243.495.569.495.977v16.334c0 .252-.073.476-.219.67a1.32 1.32 0 0 1-.598.438L17.5 24.5Zm-1.167-2.858V7.992l-4.666-1.634v13.65l4.666 1.634Z"/>
  </g>
</svg>
