<svg xmlns="http://www.w3.org/2000/svg" width="28" height="28" fill="none" viewBox="0 0 28 28">
  <mask id="a" width="28" height="28" x="0" y="0" maskUnits="userSpaceOnUse" style="mask-type:alpha">
    <path fill="#D9D9D9" d="M0 0h28v28H0z"/>
  </mask>
  <g mask="url(#a)">
    <path fill="#4E5973" d="M4.667 22.167v-2.334H7v-8.166c0-1.614.486-3.048 1.458-4.302.973-1.255 2.236-2.076 3.792-2.465v-.817c0-.486.17-.899.51-1.24.34-.34.754-.51 1.24-.51s.9.17 1.24.51c.34.341.51.754.51 1.24V4.9c1.555.389 2.82 1.21 3.792 2.465C20.514 8.619 21 10.053 21 11.667v8.166h2.333v2.334H4.667Zm9.333 3.5a2.247 2.247 0 0 1-1.648-.686 2.247 2.247 0 0 1-.685-1.648h4.666c0 .642-.228 1.191-.685 1.648a2.247 2.247 0 0 1-1.648.686Z"/>
  </g>
</svg>
