<svg xmlns="http://www.w3.org/2000/svg" width="28" height="28" fill="none" viewBox="0 0 28 28">
  <mask id="a" width="28" height="28" x="0" y="0" maskUnits="userSpaceOnUse" style="mask-type:alpha">
    <path fill="#D9D9D9" d="M0 0h28v28H0z"/>
  </mask>
  <g mask="url(#a)">
    <path fill="#4E5973" d="M14 25.667c-2.703-.68-4.934-2.232-6.694-4.652-1.76-2.421-2.64-5.11-2.64-8.065V5.833L14 2.333l9.333 3.5v7.117c0 2.956-.88 5.644-2.64 8.065-1.759 2.42-3.99 3.971-6.693 4.652Zm0-2.45c1.886-.584 3.461-1.736 4.725-3.456A11.518 11.518 0 0 0 20.942 14H14V4.813L7 7.438v6.037c0 .136.02.311.058.525H14v9.217Z"/>
  </g>
</svg>
