<svg xmlns="http://www.w3.org/2000/svg" width="28" height="28" fill="none" viewBox="0 0 28 28">
  <path fill="#4E5973" d="m11.317 25.667-.584-3.675a4.35 4.35 0 0 1-1.166-.584 8.197 8.197 0 0 1-1.05-.7l-3.442 1.575L2.333 17.5l3.15-2.333c-.058-.175-.058-.35-.058-.584v-1.166c0-.234.058-.409.058-.584L2.333 10.5l2.742-4.783 3.442 1.575a8.186 8.186 0 0 1 1.05-.7 6.608 6.608 0 0 1 1.166-.525l.584-3.734h5.366l.584 3.675c.35.117.758.292 1.166.525.409.234.759.467 1.05.759l3.442-1.575 2.742 4.783-3.15 2.275c.058.175.058.408.058.642v1.225c0 .233-.058.408-.058.641l3.15 2.217-2.684 4.783-3.441-1.575c-.292.234-.642.525-1.05.759a6.613 6.613 0 0 1-1.167.525l-.583 3.675h-5.425ZM14 17.792c1.05 0 1.925-.35 2.683-1.109.759-.758 1.109-1.633 1.109-2.683 0-1.05-.35-1.925-1.109-2.683-.758-.759-1.633-1.109-2.683-1.109-1.05 0-1.925.35-2.683 1.109-.759.758-1.109 1.633-1.109 2.683 0 1.05.35 1.925 1.109 2.683.758.759 1.633 1.109 2.683 1.109Z"/>
</svg>
