<svg xmlns="http://www.w3.org/2000/svg" width="28" height="28" fill="none" viewBox="0 0 28 28">
  <mask id="a" width="28" height="28" x="0" y="0" maskUnits="userSpaceOnUse" style="mask-type:alpha">
    <path fill="#D9D9D9" d="M0 0h28v28H0z"/>
  </mask>
  <g mask="url(#a)">
    <path fill="#4E5973" d="M18.667 15.167a364.118 364.118 0 0 1-2.61-2.406 29.078 29.078 0 0 1-2.247-2.32c-.651-.758-1.171-1.492-1.56-2.201-.389-.71-.583-1.396-.583-2.057 0-1.089.37-2.002 1.108-2.741.739-.74 1.653-1.109 2.742-1.109.622 0 1.205.132 1.75.394a4.32 4.32 0 0 1 1.4 1.065 4.32 4.32 0 0 1 1.4-1.065 3.977 3.977 0 0 1 1.75-.394c1.089 0 2.003.37 2.741 1.109.74.739 1.109 1.652 1.109 2.741 0 .661-.195 1.347-.584 2.057-.388.71-.909 1.443-1.56 2.202a30.572 30.572 0 0 1-2.231 2.319c-.836.787-1.711 1.589-2.625 2.406ZM16.333 26.25l-8.166-2.275V12.833h2.275l7.233 2.684a3.163 3.163 0 0 1 1.56 1.225 3.34 3.34 0 0 1 .598 1.925H17.5c-.817 0-1.458-.03-1.925-.088a6.408 6.408 0 0 1-1.225-.262l-2.333-.759-.35 1.109 1.837.67a6.41 6.41 0 0 0 1.488.409c.447.058.972.087 1.575.087h5.6c1.283 0 2.187.21 2.712.628.525.418.788.986.788 1.706v1.166l-9.334 2.917Zm-15.166-.583V12.833h4.666v12.834H1.167Z"/>
  </g>
</svg>
