<svg xmlns="http://www.w3.org/2000/svg" width="28" height="28" fill="none" viewBox="0 0 28 28">
  <path fill="#4E5973" d="M14 12.25c-1.283 0-2.333-.408-3.15-1.225-.817-.817-1.225-1.867-1.225-3.15s.408-2.333 1.225-3.15C11.667 3.908 12.717 3.5 14 3.5s2.333.408 3.15 1.225c.817.817 1.225 1.867 1.225 3.15s-.408 2.333-1.225 3.15c-.817.817-1.867 1.225-3.15 1.225ZM4.667 24.208V18.9c0-.175 0-.583.175-1.108.058-.292.233-.584.35-.817.35-.525.875-.933 1.458-1.167 1.283-.583 2.567-1.05 3.733-1.283 1.167-.233 2.392-.467 3.617-.467s2.392.175 3.558.467c1.167.292 2.45.758 3.734 1.283.583.292 1.108.7 1.458 1.167.525.7.525 1.4.525 1.867.117 2.508.058 4.608 0 5.366-3.033-.058-6.125 0-9.275 0H4.667Zm1.75-1.983h15.166v-3.267c0-.291-.116-.583-.291-.875-.175-.291-.409-.466-.7-.641-1.225-.584-2.392-.992-3.442-1.225-.992-.292-2.042-.409-3.15-.409s-2.217.117-3.208.35c-1.05.234-2.217.642-3.442 1.225-.292.117-.525.35-.7.642a1.646 1.646 0 0 0-.233.875v3.325ZM14 10.5c.758 0 1.4-.233 1.867-.758.466-.525.758-1.109.758-1.867s-.233-1.4-.758-1.867c-.525-.466-1.109-.758-1.867-.758s-1.4.233-1.867.758c-.466.525-.758 1.109-.758 1.867s.233 1.4.758 1.867c.467.525 1.109.758 1.867.758Z"/>
</svg>
